<svg id="Capa_1" enable-background="new 0 0 512 512" height="512" viewBox="0 0 512 512" width="512" xmlns="http://www.w3.org/2000/svg"><circle cx="256" cy="256" fill="#f2bb88" r="256"/><path d="m275.587 511.26c132.233-10.004 236.413-120.465 236.413-255.26 0-3.746-.098-7.469-.257-11.176l-76.743-76.743-4.15 3.912-61.156-61.156-11.739 8.452-46.87-46.87-230.871 139.141 180.472 180.472-53.13 51.197z" fill="#d6995c"/><path d="m319.726 402.665c-6.527-111.142-32.58-209.807-63.726-209.807-12.305 0-23.814 15.411-33.64 40.898-35.71-31.1-51.245-76.373-51.432-76.932l-28.468 9.464c.453 1.367 5.266 15.533 15.539 33.926-7.129-1.256-16.403-3.77-28.145-8.508l-11.226 27.82c22.724 9.169 39.34 11.889 51.063 11.889 3.277 0 6.165-.215 8.703-.559 9.327 11.789 20.658 23.511 34.199 33.544-10.026 37.618-17.284 86.59-20.319 138.266-1.694 28.851 19.324 53.249 45.782 53.249h35.887c26.458-.001 47.477-24.399 45.783-53.25z" fill="#966857"/><path d="m333.605 230.855c2.538.344 5.426.559 8.703.559 11.722 0 28.342-2.72 51.063-11.889l-11.226-27.82c-11.742 4.738-21.016 7.251-28.145 8.508 10.272-18.392 15.086-32.558 15.539-33.925l-28.468-9.464c-.188.559-15.722 45.832-51.432 76.932-9.825-25.487-21.334-40.898-33.64-40.898-.135 0-.27.016-.405.02v263.036h18.348c26.458 0 47.477-24.398 45.782-53.249-3.035-51.676-10.292-100.648-20.319-138.266 13.542-10.033 24.873-21.755 34.2-33.544z" fill="#805142"/><path d="m179.933 221.94c18.803 0 34.045-15.243 34.045-34.045s-15.243-34.045-34.045-34.045c-.022 0-.043.002-.065.002-7.867-12.453-21.744-20.731-37.563-20.731s-29.696 8.278-37.563 20.731c-.022 0-.043-.002-.065-.002-18.803 0-34.045 15.243-34.045 34.045s15.243 34.045 34.045 34.045z" fill="#06bf51"/><path d="m407.323 221.94c18.803 0 34.045-15.243 34.045-34.045s-15.243-34.045-34.045-34.045c-.022 0-.043.002-.065.002-7.867-12.453-21.744-20.731-37.563-20.731s-29.696 8.278-37.563 20.731c-.022 0-.043-.002-.065-.002-18.803 0-34.045 15.243-34.045 34.045s15.243 34.045 34.045 34.045z" fill="#0d9b50"/><path d="m320.872 202.122c32.417 0 58.696-26.279 58.696-58.696s-26.279-58.696-58.696-58.696c-.037 0-.074.003-.112.003-13.562-21.47-37.487-35.741-64.76-35.741s-51.198 14.271-64.761 35.741c-.037 0-.074-.003-.112-.003-32.417 0-58.696 26.279-58.696 58.696s26.279 58.696 58.696 58.696z" fill="#00d65b"/><path d="m320.872 84.73c-.037 0-.074.003-.112.003-13.562-21.47-37.487-35.741-64.76-35.741-.135 0-.269.006-.405.007v153.124h65.277c32.417 0 58.696-26.279 58.696-58.696s-26.279-58.697-58.696-58.697z" fill="#06bf51"/></svg>